####
#
#	OBJ File Generated by LightWave3D
#	LightWave3D OBJ Export v2.3
#
####
o Elevators.obj
mtllib Elevators.mtl
g default
v -10.216 1.73163e-007 16.0745
v -11.016 1.73163e-007 19.6745
v -10.216 -2.26023e-009 23.2134
v -4 -5.8912e-008 21.8295
v -4 3.1534e-008 15.0931
v -10.6626 9.56694e-008 21.2378
v -0.52866 0.520133 21.256
v -2.52686 -0.677071 14.8745
v -2.52686 0.67707 14.8745
v -1.02686 -0.277071 17.8745
v -2.52686 0.67707 17.8745
v -10.6679 -0.644096 19.6745
v -9.8679 -0.644096 16.6745
v -9.8679 0.644096 16.6745
v -10.6679 0.644096 19.6745
v -9.8679 -0.257639 22.6494
v -9.8679 0.257638 22.6494
v -4 0.268181 21.2969
v -4 -0.268182 21.2969
v -4 -0.671104 18.2002
v -4 0.671104 18.2002
v -4 0.670453 15.2357
v -4 -0.670454 15.2357
v -10.2473 -0.440913 21.2386
v -10.2473 0.440913 21.2386
v -4 0.274309 21.2498
v -4 -0.274309 21.2498
v -4.30396 -0.669873 18.2674
v -4.30396 -0.282415 21.2493
v -4.30396 -0.267635 21.367
v -4.30396 0.669872 18.2674
v -4.30396 0.282415 21.2493
v -4.30396 0.267635 21.367
v -4.30396 -5.61418e-008 21.8972
v -4.30396 -0.669088 15.3103
v -4.30396 0.669088 15.3103
v -4.30396 0.0333641 15.175
v -4.30396 3.84595e-008 15.141
v -4.30396 -0.0333641 15.175
v -2.26433 0.397221 21.2529
v -2 0.373397 21.7238
v -2 0.239306 21.9901
v -2 0.105215 21.7238
v -2.26433 -0.0187424 21.2529
v -0.52866 0.236825 21.256
v 10.216 1.73163e-007 16.0745
v 11.016 1.73163e-007 19.6745
v 10.216 -2.26023e-009 23.2134
v 4 -5.8912e-008 21.8295
v 4 3.1534e-008 15.0931
v 10.6626 9.56694e-008 21.2378
v 0.52866 0.520133 21.256
v 2.52686 -0.677071 14.8745
v 2.52686 0.67707 14.8745
v 1.02686 -0.277071 17.8745
v 2.52686 0.67707 17.8745
v 10.6679 -0.644096 19.6745
v 9.8679 -0.644096 16.6745
v 9.8679 0.644096 16.6745
v 10.6679 0.644096 19.6745
v 9.8679 -0.257639 22.6494
v 9.8679 0.257638 22.6494
v 4 0.268181 21.2969
v 4 -0.268182 21.2969
v 4 -0.671104 18.2002
v 4 0.671104 18.2002
v 4 0.670453 15.2357
v 4 -0.670454 15.2357
v 10.2473 -0.440913 21.2386
v 10.2473 0.440913 21.2386
v 4 0.274309 21.2498
v 4 -0.274309 21.2498
v 4.30396 -0.669873 18.2674
v 4.30396 -0.282415 21.2493
v 4.30396 -0.267635 21.367
v 4.30396 0.669872 18.2674
v 4.30396 0.282415 21.2493
v 4.30396 0.267635 21.367
v 4.30396 -5.61418e-008 21.8972
v 4.30396 -0.669088 15.3103
v 4.30396 0.669088 15.3103
v 4.30396 0.0333641 15.175
v 4.30396 3.84595e-008 15.141
v 4.30396 -0.0333641 15.175
v 2.26433 0.397221 21.2529
v 2 0.373397 21.7238
v 2 0.239306 21.9901
v 2 0.105215 21.7238
v 2.26433 -0.0187424 21.2529
v 0.52866 0.236825 21.256
v 0 0.478612 22.1507
vt 3 0
vn -0.179777 -0.475966 -0.860893
vn -0.153656 -0.774956 -0.613053
vn -0.483952 -0.719475 -0.498143
vn -0.148241 -0.79365 -0.590038
vn -0.153656 -0.774956 -0.613053
vn -0.179777 -0.475966 -0.860893
vn -0.206108 5.89219e-008 -0.978529
vn -0.155962 1.68962e-007 -0.987763
vn -0.179777 -0.475966 -0.860893
vn -0.483952 -0.719475 -0.498143
vn -0.717597 2.37988e-007 -0.696459
vn -0.179777 -0.475966 -0.860893
vn -0.155962 1.68962e-007 -0.987763
vn -0.206108 5.89219e-008 -0.978529
vn -0.155962 1.68962e-007 -0.987763
vn -0.179777 0.475966 -0.860893
vn -0.206108 5.89219e-008 -0.978529
vn -0.483952 0.719475 -0.498143
vn -0.179777 0.475966 -0.860893
vn -0.155962 1.68962e-007 -0.987763
vn -0.717597 2.37988e-007 -0.696459
vn -0.153515 0.774973 -0.613066
vn -0.179777 0.475966 -0.860893
vn -0.483952 0.719475 -0.498143
vn -0.206108 5.89219e-008 -0.978529
vn -0.179777 0.475966 -0.860893
vn -0.153515 0.774973 -0.613066
vn -0.153505 0.775016 -0.613014
vn -0.153505 0.775016 -0.613014
vn -0.153515 0.774973 -0.613066
vn 0.0106391 0.997863 0.0644715
vn 0.0106633 0.997856 0.0645805
vn -0.153515 0.774973 -0.613066
vn -0.483952 0.719475 -0.498143
vn -0.499043 0.864811 0.0552947
vn 0.0106391 0.997863 0.0644715
vn 0.0473821 -0.994408 0.0943761
vn 0.0101013 -0.997868 0.0644726
vn -0.153656 -0.774956 -0.613053
vn -0.148241 -0.79365 -0.590038
vn -0.499044 -0.864811 0.0552947
vn -0.483952 -0.719475 -0.498143
vn -0.153656 -0.774956 -0.613053
vn 0.0101013 -0.997868 0.0644726
vn 0.0725892 -0.00367642 0.997355
vn 0.218306 9.33373e-005 0.97588
vn 0.0644423 -0.954857 0.289993
vn 0.0865098 -0.948988 0.303214
vn -0.558278 2.2258e-007 0.829654
vn -0.283536 -0.923771 0.257399
vn 0.0644423 -0.954857 0.289993
vn 0.218306 9.33373e-005 0.97588
vn -0.0220851 0.958966 0.282659
vn 0.0641363 0.954873 0.290007
vn 0.218306 9.33373e-005 0.97588
vn 0.0725892 -0.00367642 0.997355
vn 0.0641363 0.954873 0.290007
vn -0.283535 0.923771 0.257399
vn -0.558278 2.2258e-007 0.829654
vn 0.218306 9.33373e-005 0.97588
vn -0.283535 0.923771 0.257399
vn 0.0641363 0.954873 0.290007
vn 0.0259591 0.991684 0.126048
vn -0.493365 0.842295 0.217096
vn -0.0220851 0.958966 0.282659
vn -0.0129066 0.993591 0.112295
vn 0.0259591 0.991684 0.126048
vn 0.0641363 0.954873 0.290007
vn 0.0106633 0.997856 0.0645805
vn 0.0106391 0.997863 0.0644715
vn 0.0259591 0.991684 0.126048
vn -0.0129066 0.993591 0.112295
vn -0.499043 0.864811 0.0552947
vn -0.493365 0.842295 0.217096
vn 0.0259591 0.991684 0.126048
vn 0.0106391 0.997863 0.0644715
vn 0.0253599 -0.9917 0.12605
vn 0.0644423 -0.954857 0.289993
vn -0.283536 -0.923771 0.257399
vn -0.493366 -0.842294 0.217096
vn 0.0966059 -0.985808 0.137292
vn 0.0865098 -0.948988 0.303214
vn 0.0644423 -0.954857 0.289993
vn 0.0253599 -0.9917 0.12605
vn 0.0966059 -0.985808 0.137292
vn 0.0253599 -0.9917 0.12605
vn 0.0101013 -0.997868 0.0644726
vn 0.0473821 -0.994408 0.0943761
vn 0.0253599 -0.9917 0.12605
vn -0.493366 -0.842294 0.217096
vn -0.499044 -0.864811 0.0552947
vn 0.0101013 -0.997868 0.0644726
vn -0.999903 1.95163e-007 0.0139275
vn -0.717597 2.37988e-007 -0.696459
vn -0.483952 -0.719475 -0.498143
vn -0.999903 1.95163e-007 0.0139275
vn -0.483952 -0.719475 -0.498143
vn -0.499044 -0.864811 0.0552947
vn -0.499043 0.864811 0.0552947
vn -0.483952 0.719475 -0.498143
vn -0.999903 1.95163e-007 0.0139275
vn -0.483952 0.719475 -0.498143
vn -0.717597 2.37988e-007 -0.696459
vn -0.999903 1.95163e-007 0.0139275
vn -0.961151 1.96788e-007 0.276022
vn -0.999903 1.95163e-007 0.0139275
vn -0.493366 -0.842294 0.217096
vn -0.493366 -0.842294 0.217096
vn -0.999903 1.95163e-007 0.0139275
vn -0.499044 -0.864811 0.0552947
vn -0.283536 -0.923771 0.257399
vn -0.961151 1.96788e-007 0.276022
vn -0.493366 -0.842294 0.217096
vn -0.558278 2.2258e-007 0.829654
vn -0.961151 1.96788e-007 0.276022
vn -0.283536 -0.923771 0.257399
vn -0.493365 0.842295 0.217096
vn -0.499043 0.864811 0.0552947
vn -0.999903 1.95163e-007 0.0139275
vn -0.493365 0.842295 0.217096
vn -0.999903 1.95163e-007 0.0139275
vn -0.961151 1.96788e-007 0.276022
vn -0.283535 0.923771 0.257399
vn -0.493365 0.842295 0.217096
vn -0.961151 1.96788e-007 0.276022
vn -0.283535 0.923771 0.257399
vn -0.961151 1.96788e-007 0.276022
vn -0.558278 2.2258e-007 0.829654
vn -0.0201353 0.998079 0.0585947
vn 0.0106633 0.997856 0.0645805
vn -0.0129066 0.993591 0.112295
vn 0.0966059 -0.985808 0.137292
vn 0.0473821 -0.994408 0.0943761
vn 0.0764298 -0.988397 0.131264
vn -0.104196 0.596264 -0.795998
vn -0.153505 0.775016 -0.613014
vn 0.0106633 0.997856 0.0645805
vn -0.0201353 0.998079 0.0585947
vn 0.0764298 -0.988397 0.131264
vn 0.0473821 -0.994408 0.0943761
vn -0.148241 -0.79365 -0.590038
vn -0.102175 -0.627641 -0.771769
vn -0.108242 0.956021 0.272595
vn -5.67461e-009 0.0225483 0.999746
vn -0.0352891 0.997085 0.0676472
vn -0.0707794 0.993517 0.0889639
vn -0.0707794 0.993517 0.0889639
vn -0.0129066 0.993591 0.112295
vn -0.0220851 0.958966 0.282659
vn -0.108242 0.956021 0.272595
vn -0.108242 0.956021 0.272595
vn -0.0220851 0.958966 0.282659
vn 0.0725892 -0.00367642 0.997355
vn -0.0791437 -0.00754444 0.996835
vn -0.0791437 -0.00754444 0.996835
vn -5.67461e-009 0.0225483 0.999746
vn -0.108242 0.956021 0.272595
vn 0.108342 -0.942688 0.315596
vn -5.67461e-009 0.0225483 0.999746
vn -0.0791437 -0.00754444 0.996835
vn -0.0791437 -0.00754444 0.996835
vn 0.0725892 -0.00367642 0.997355
vn 0.0865098 -0.948988 0.303214
vn 0.108342 -0.942688 0.315596
vn 0.108342 -0.942688 0.315596
vn 0.0865098 -0.948988 0.303214
vn 0.0966059 -0.985808 0.137292
vn 0.14404 -0.977856 0.151823
vn 0.14404 -0.977856 0.151823
vn 0.0724469 -0.981126 0.179285
vn -5.67461e-009 0.0225483 0.999746
vn 0.108342 -0.942688 0.315596
vn 0.14404 -0.977856 0.151823
vn 0.0966059 -0.985808 0.137292
vn 0.0764298 -0.988397 0.131264
vn -0.0707794 0.993517 0.0889639
vn -0.0201353 0.998079 0.0585947
vn -0.0129066 0.993591 0.112295
vn 0.153656 -0.774956 -0.613053
vn 0.179777 -0.475966 -0.860893
vn 0.483952 -0.719475 -0.498143
vn 0.179777 -0.475966 -0.860893
vn 0.153656 -0.774956 -0.613053
vn 0.148241 -0.79365 -0.590038
vn 0.206108 6.12788e-008 -0.978529
vn 0.483952 -0.719475 -0.498143
vn 0.179777 -0.475966 -0.860893
vn 0.155962 1.68962e-007 -0.987763
vn 0.717597 2.37988e-007 -0.696459
vn 0.155962 1.68962e-007 -0.987763
vn 0.179777 -0.475966 -0.860893
vn 0.206108 6.12788e-008 -0.978529
vn 0.179777 0.475966 -0.860893
vn 0.155962 1.68962e-007 -0.987763
vn 0.206108 6.12788e-008 -0.978529
vn 0.155962 1.68962e-007 -0.987763
vn 0.179777 0.475966 -0.860893
vn 0.483952 0.719475 -0.498143
vn 0.717597 2.37988e-007 -0.696459
vn 0.179777 0.475966 -0.860893
vn 0.153515 0.774973 -0.613066
vn 0.483952 0.719475 -0.498143
vn 0.153515 0.774973 -0.613066
vn 0.179777 0.475966 -0.860893
vn 0.206108 6.12788e-008 -0.978529
vn 0.153505 0.775016 -0.613014
vn -0.0106391 0.997863 0.0644715
vn 0.153515 0.774973 -0.613066
vn 0.153505 0.775016 -0.613014
vn -0.0106633 0.997856 0.0645805
vn 0.499043 0.864811 0.0552947
vn 0.483952 0.719475 -0.498143
vn 0.153515 0.774973 -0.613066
vn -0.0106391 0.997863 0.0644715
vn 0.153656 -0.774956 -0.613053
vn -0.0101013 -0.997868 0.0644726
vn -0.0473821 -0.994408 0.0943761
vn 0.148241 -0.79365 -0.590038
vn 0.153656 -0.774956 -0.613053
vn 0.483952 -0.719475 -0.498143
vn 0.499044 -0.864811 0.0552947
vn -0.0101013 -0.997868 0.0644726
vn -0.0644423 -0.954857 0.289993
vn -0.218306 9.33697e-005 0.97588
vn -0.0725892 -0.00367642 0.997355
vn -0.0865098 -0.948988 0.303214
vn -0.0644423 -0.954857 0.289993
vn 0.283536 -0.923771 0.257399
vn 0.558278 2.2258e-007 0.829654
vn -0.218306 9.33697e-005 0.97588
vn -0.218306 9.33697e-005 0.97588
vn -0.0641363 0.954873 0.290007
vn 0.0220851 0.958966 0.282659
vn -0.0725892 -0.00367642 0.997355
vn 0.558278 2.2258e-007 0.829654
vn 0.283535 0.923771 0.257399
vn -0.0641363 0.954873 0.290007
vn -0.218306 9.33697e-005 0.97588
vn -0.0259591 0.991684 0.126048
vn -0.0641363 0.954873 0.290007
vn 0.283535 0.923771 0.257399
vn 0.493365 0.842295 0.217096
vn -0.0259591 0.991684 0.126048
vn 0.0129066 0.993591 0.112295
vn 0.0220851 0.958966 0.282659
vn -0.0641363 0.954873 0.290007
vn -0.0259591 0.991684 0.126048
vn -0.0106391 0.997863 0.0644715
vn -0.0106633 0.997856 0.0645805
vn 0.0129066 0.993591 0.112295
vn -0.0259591 0.991684 0.126048
vn 0.493365 0.842295 0.217096
vn 0.499043 0.864811 0.0552947
vn -0.0106391 0.997863 0.0644715
vn 0.283536 -0.923771 0.257399
vn -0.0644423 -0.954857 0.289993
vn -0.0253599 -0.9917 0.12605
vn 0.493366 -0.842294 0.217096
vn -0.0644423 -0.954857 0.289993
vn -0.0865098 -0.948988 0.303214
vn -0.0966059 -0.985808 0.137292
vn -0.0253599 -0.9917 0.12605
vn -0.0101013 -0.997868 0.0644726
vn -0.0253599 -0.9917 0.12605
vn -0.0966059 -0.985808 0.137292
vn -0.0473821 -0.994408 0.0943761
vn 0.499044 -0.864811 0.0552947
vn 0.493366 -0.842294 0.217096
vn -0.0253599 -0.9917 0.12605
vn -0.0101013 -0.997868 0.0644726
vn 0.717597 2.37988e-007 -0.696459
vn 0.999903 1.95163e-007 0.0139275
vn 0.483952 -0.719475 -0.498143
vn 0.483952 -0.719475 -0.498143
vn 0.999903 1.95163e-007 0.0139275
vn 0.499044 -0.864811 0.0552947
vn 0.483952 0.719475 -0.498143
vn 0.499043 0.864811 0.0552947
vn 0.999903 1.95163e-007 0.0139275
vn 0.717597 2.37988e-007 -0.696459
vn 0.483952 0.719475 -0.498143
vn 0.999903 1.95163e-007 0.0139275
vn 0.999903 1.95163e-007 0.0139275
vn 0.961151 1.96788e-007 0.276022
vn 0.493366 -0.842294 0.217096
vn 0.999903 1.95163e-007 0.0139275
vn 0.493366 -0.842294 0.217096
vn 0.499044 -0.864811 0.0552947
vn 0.961151 1.96788e-007 0.276022
vn 0.283536 -0.923771 0.257399
vn 0.493366 -0.842294 0.217096
vn 0.961151 1.96788e-007 0.276022
vn 0.558278 2.2258e-007 0.829654
vn 0.283536 -0.923771 0.257399
vn 0.499043 0.864811 0.0552947
vn 0.493365 0.842295 0.217096
vn 0.999903 1.95163e-007 0.0139275
vn 0.999903 1.95163e-007 0.0139275
vn 0.493365 0.842295 0.217096
vn 0.961151 1.96788e-007 0.276022
vn 0.493365 0.842295 0.217096
vn 0.283535 0.923771 0.257399
vn 0.961151 1.96788e-007 0.276022
vn 0.961151 1.96788e-007 0.276022
vn 0.283535 0.923771 0.257399
vn 0.558278 2.2258e-007 0.829654
vn -0.0106633 0.997856 0.0645805
vn 0.0201353 0.998079 0.0585947
vn 0.0129066 0.993591 0.112295
vn -0.0473821 -0.994408 0.0943761
vn -0.0966059 -0.985808 0.137292
vn -0.0764298 -0.988397 0.131264
vn -0.0106633 0.997856 0.0645805
vn 0.153505 0.775016 -0.613014
vn 0.104196 0.596264 -0.795998
vn 0.0201353 0.998079 0.0585947
vn 0.148241 -0.79365 -0.590038
vn -0.0473821 -0.994408 0.0943761
vn -0.0764298 -0.988397 0.131264
vn 0.102175 -0.627641 -0.771769
vn 0.0352891 0.997085 0.0676472
vn -5.67461e-009 0.0225483 0.999746
vn 0.108242 0.956021 0.272595
vn 0.0707794 0.993517 0.0889639
vn 0.0220851 0.958966 0.282659
vn 0.0129066 0.993591 0.112295
vn 0.0707794 0.993517 0.0889639
vn 0.108242 0.956021 0.272595
vn -0.0725892 -0.00367642 0.997355
vn 0.0220851 0.958966 0.282659
vn 0.108242 0.956021 0.272595
vn 0.0791437 -0.00754444 0.996835
vn -5.67461e-009 0.0225483 0.999746
vn 0.0791437 -0.00754444 0.996835
vn 0.108242 0.956021 0.272595
vn -5.67461e-009 0.0225483 0.999746
vn -0.108342 -0.942688 0.315596
vn 0.0791437 -0.00754444 0.996835
vn -0.0865098 -0.948988 0.303214
vn -0.0725892 -0.00367642 0.997355
vn 0.0791437 -0.00754444 0.996835
vn -0.108342 -0.942688 0.315596
vn -0.0966059 -0.985808 0.137292
vn -0.0865098 -0.948988 0.303214
vn -0.108342 -0.942688 0.315596
vn -0.14404 -0.977856 0.151823
vn -5.67461e-009 0.0225483 0.999746
vn -0.0724469 -0.981126 0.179285
vn -0.14404 -0.977856 0.151823
vn -0.108342 -0.942688 0.315596
vn -0.0966059 -0.985808 0.137292
vn -0.14404 -0.977856 0.151823
vn -0.0764298 -0.988397 0.131264
vn 0.0201353 0.998079 0.0585947
vn 0.0707794 0.993517 0.0889639
vn 0.0129066 0.993591 0.112295
vn -5.67461e-009 0.0225483 0.999746
vn 0.0352891 0.997085 0.0676472
vn -0.0352891 0.997085 0.0676472
vn -0.0707794 0.993517 0.0889639
vn -0.0352891 0.997085 0.0676472
vn -0.0201353 0.998079 0.0585947
vn 0.0707794 0.993517 0.0889639
vn 0.0201353 0.998079 0.0585947
vn 0.0352891 0.997085 0.0676472
vn 0.0201353 0.998079 0.0585947
vn -0.0201353 0.998079 0.0585947
vn -0.0352891 0.997085 0.0676472
vn 0.0352891 0.997085 0.0676472
vn 0.104196 0.596264 -0.795998
vn -0.104196 0.596264 -0.795998
vn -0.0201353 0.998079 0.0585947
vn 0.0201353 0.998079 0.0585947
vn 0.104196 0.596264 -0.795998
vn 0.153505 0.775016 -0.613014
vn 0.206108 6.12788e-008 -0.978529
vn -0.206108 5.89219e-008 -0.978529
vn -0.153505 0.775016 -0.613014
vn -0.104196 0.596264 -0.795998
vn 0.148241 -0.79365 -0.590038
vn 0.102175 -0.627641 -0.771769
vn 0.206108 6.12788e-008 -0.978529
vn -0.148241 -0.79365 -0.590038
vn -0.206108 5.89219e-008 -0.978529
vn -0.102175 -0.627641 -0.771769
vn 0.206108 6.12788e-008 -0.978529
vn 0.102175 -0.627641 -0.771769
vn 0.104196 0.596264 -0.795998
vn -0.102175 -0.627641 -0.771769
vn -0.206108 5.89219e-008 -0.978529
vn -0.104196 0.596264 -0.795998
vn -0.102175 -0.627641 -0.771769
vn -0.104196 0.596264 -0.795998
vn 0.104196 0.596264 -0.795998
vn 0.102175 -0.627641 -0.771769
vn -0.102175 -0.627641 -0.771769
vn 0.102175 -0.627641 -0.771769
vn -0.0764298 -0.988397 0.131264
vn 0.0764298 -0.988397 0.131264
vn -5.67461e-009 0.0225483 0.999746
vn 0.0724469 -0.981126 0.179285
vn -0.0724469 -0.981126 0.179285
vn -0.14404 -0.977856 0.151823
vn -0.0724469 -0.981126 0.179285
vn -0.0764298 -0.988397 0.131264
vn 0.14404 -0.977856 0.151823
vn 0.0764298 -0.988397 0.131264
vn 0.0724469 -0.981126 0.179285
vn -0.0764298 -0.988397 0.131264
vn -0.0724469 -0.981126 0.179285
vn 0.0724469 -0.981126 0.179285
vn 0.0764298 -0.988397 0.131264
g Default
usemtl Default
s 1
f 39//1 35//2 13//3
f 23//4 35//5 39//6 5//7
f 38//8 39//9 13//10 1//11
f 39//12 38//13 5//14
f 38//15 37//16 5//17
f 14//18 37//19 38//20 1//21
f 36//22 37//23 14//24
f 5//25 37//26 36//27 22//28
f 22//29 36//30 31//31 21//32
f 36//33 14//34 15//35 31//36
f 20//37 28//38 35//39 23//40
f 12//41 13//42 35//43 28//44
f 4//45 34//46 30//47 19//48
f 3//49 16//50 30//51 34//52
f 18//53 33//54 34//55 4//56
f 33//57 17//58 3//59 34//60
f 17//61 33//62 32//63 25//64
f 18//65 26//66 32//67 33//68
f 21//69 31//70 32//71 26//72
f 15//73 25//74 32//75 31//76
f 29//77 30//78 16//79 24//80
f 27//81 19//82 30//83 29//84
f 27//85 29//86 28//87 20//88
f 29//89 24//90 12//91 28//92
f 2//93 1//94 13//95
f 2//96 13//97 12//98
f 15//99 14//100 2//101
f 14//102 1//103 2//104
f 6//105 2//106 24//107
f 24//108 2//109 12//110
f 16//111 6//112 24//113
f 3//114 6//115 16//116
f 25//117 15//118 2//119
f 25//120 2//121 6//122
f 17//123 25//124 6//125
f 17//126 6//127 3//128
f 11//129 21//130 26//131
f 27//132 20//133 10//134
f 9//135 22//136 21//137 11//138
f 10//139 20//140 23//141 8//142
f 41//143 91//144 7//145 40//146
f 40//147 26//148 18//149 41//150
f 41//151 18//152 4//153 42//154
f 42//155 91//156 41//157
f 43//158 91//159 42//160
f 42//161 4//162 19//163 43//164
f 43//165 19//166 27//167 44//168
f 44//169 45//170 91//171 43//172
f 44//173 27//174 10//175
f 40//176 11//177 26//178
f 80//179 84//180 58//181
f 84//182 80//183 68//184 50//185
f 58//186 84//187 83//188 46//189
f 83//190 84//191 50//192
f 82//193 83//194 50//195
f 83//196 82//197 59//198 46//199
f 82//200 81//201 59//202
f 81//203 82//204 50//205 67//206
f 76//207 81//208 67//209 66//210
f 60//211 59//212 81//213 76//214
f 80//215 73//216 65//217 68//218
f 80//219 58//220 57//221 73//222
f 75//223 79//224 49//225 64//226
f 75//227 61//228 48//229 79//230
f 79//231 78//232 63//233 49//234
f 48//235 62//236 78//237 79//238
f 77//239 78//240 62//241 70//242
f 77//243 71//244 63//245 78//246
f 77//247 76//248 66//249 71//250
f 77//251 70//252 60//253 76//254
f 61//255 75//256 74//257 69//258
f 75//259 64//260 72//261 74//262
f 73//263 74//264 72//265 65//266
f 57//267 69//268 74//269 73//270
f 46//271 47//272 58//273
f 58//274 47//275 57//276
f 59//277 60//278 47//279
f 46//280 59//281 47//282
f 47//283 51//284 69//285
f 47//286 69//287 57//288
f 51//289 61//290 69//291
f 51//292 48//293 61//294
f 60//295 70//296 47//297
f 47//298 70//299 51//300
f 70//301 62//302 51//303
f 51//304 62//305 48//306
f 66//307 56//308 71//309
f 65//310 72//311 55//312
f 66//313 67//314 54//315 56//316
f 68//317 65//318 55//319 53//320
f 52//321 91//322 86//323 85//324
f 63//325 71//326 85//327 86//328
f 49//329 63//330 86//331 87//332
f 91//333 87//334 86//335
f 91//336 88//337 87//338
f 64//339 49//340 87//341 88//342
f 72//343 64//344 88//345 89//346
f 91//347 90//348 89//349 88//350
f 72//351 89//352 55//353
f 56//354 85//355 71//356
f 91//357 52//358 7//359
f 40//360 7//361 11//362
f 85//363 56//364 52//365
f 56//366 11//367 7//368 52//369
f 54//370 9//371 11//372 56//373
f 54//374 67//375 50//376
f 5//377 22//378 9//379
f 68//380 53//381 50//382
f 23//383 5//384 8//385
f 50//386 53//387 54//388
f 8//389 5//390 9//391
f 8//392 9//393 54//394 53//395
f 8//396 53//397 55//398 10//399
f 91//400 45//401 90//402
f 89//403 90//404 55//405
f 44//406 10//407 45//408
f 55//409 90//410 45//411 10//412
